<svg xmlns="http://www.w3.org/2000/svg" width="148" height="50" viewBox="0 0 148 50" fill="none">
  <path d="M9.96155 35.8475V17.3729L4.83847 20.3672V38.7288L16.7923 45.7345V39.8305L9.96155 35.8475Z" fill="#002172"></path>
  <path fill-rule="evenodd" clip-rule="evenodd" d="M24.1923 9.03955L11.6692 16.3842V34.8588L16.7923 37.8531V20.1977L23.3385 24.0396V31.4407L18.5 28.5876V34.4915L24.1923 37.8249L36.7154 30.4802V16.3559L24.1923 9.03955ZM17.7031 18.7571L24.1923 14.9435L30.6815 18.7571L24.1923 22.5706L17.7031 18.7571ZM31.5923 27.5989L25.0462 31.4407V24.0396L31.5923 20.1977V27.5989Z" fill="#002172"></path>
  <path d="M104.767 15.2542V30.5085H102.319V15.2542H104.767Z" fill="#002172"></path>
  <path d="M77.6146 25.2542C77.6146 22.2034 79.8916 19.774 83.1646 19.774C85.7831 19.774 88.2023 21.6384 88.4869 24.322H86.0962C85.7831 22.9661 84.5593 22.0339 83.1646 22.0339C81.2862 22.0339 80.0623 23.4463 80.0623 25.2542C80.0623 27.0622 81.2577 28.4463 83.1646 28.4463C84.5593 28.4746 85.7831 27.5141 86.0962 26.1582H88.4869C88.2023 28.8701 85.7831 30.7062 83.1646 30.7062C79.8916 30.7062 77.6146 28.2768 77.6146 25.2542Z" fill="#002172"></path>
  <path fill-rule="evenodd" clip-rule="evenodd" d="M67.5108 20V30.5085H65.0631V29.096C64.1808 30.1412 62.9 30.7345 61.5054 30.7345C58.6023 30.7345 56.4108 28.5028 56.4108 25.2825C56.4108 22.0621 58.6023 19.8023 61.5054 19.8023C62.8716 19.774 64.1808 20.3672 65.0631 21.4407V20.0282L67.5108 20ZM65.0631 25.2542C65.0631 23.4463 63.7539 22.0056 61.9608 22.0056C60.1677 22.0056 58.9439 23.4463 58.9439 25.2542C58.9439 27.0621 60.1962 28.4746 61.9608 28.4746C63.7254 28.4746 65.0631 27.0621 65.0631 25.2542Z" fill="#002172"></path>
  <path fill-rule="evenodd" clip-rule="evenodd" d="M55.2154 25.2542C55.2154 28.4746 53.0238 30.7345 50.1208 30.7345C48.7546 30.7627 47.4454 30.1695 46.5915 29.1243V35.6215H44.1438V20.0282H46.5915V21.4407C47.4738 20.3955 48.7546 19.8023 50.1492 19.8023C53.0523 19.8023 55.2154 22.0339 55.2154 25.2542ZM52.7108 25.2542C52.7108 23.4746 51.4585 22.0339 49.6654 22.0339C47.8723 22.0339 46.5915 23.4463 46.5915 25.2542C46.5915 27.0621 47.9008 28.5028 49.6939 28.5028C51.4869 28.5028 52.7108 27.0621 52.7108 25.2542Z" fill="#002172"></path>
  <path d="M77.1308 22.4011V19.8023C75.2808 19.8023 73.6585 20.452 72.5485 21.8079V20H70.1008V30.5085H72.5485V26.2147C72.5485 23.5311 74.1708 22.1186 77.1308 22.4011Z" fill="#002172"></path>
  <path fill-rule="evenodd" clip-rule="evenodd" d="M92.0162 26.1017H100.242C100.725 22.3164 98.2777 19.8023 94.9762 19.774C91.8739 19.774 89.6539 22.2316 89.6539 25.2542C89.6539 28.2768 91.76 30.7062 95.2608 30.7062C97.4808 30.7062 99.4446 29.2938 100.128 27.2034H97.7369C97.2246 28.1638 96.2854 28.6158 95.1469 28.6158C93.61 28.6723 92.2723 27.5989 92.0162 26.1017ZM97.8792 24.2938H92.0731C92.3577 22.8531 93.6385 21.8362 95.09 21.8927C96.5131 21.8644 97.7085 22.9096 97.8792 24.2938Z" fill="#002172"></path>
  <path d="M116.322 30.5085V28.2486H110.118V15.2542H107.67V30.5085H116.322Z" fill="#002172"></path>
  <path fill-rule="evenodd" clip-rule="evenodd" d="M127.764 20V30.5085H125.316V29.096C124.434 30.1412 123.153 30.7345 121.758 30.7345C118.855 30.7345 116.664 28.5028 116.664 25.2825C116.664 22.0621 118.855 19.8023 121.758 19.8023C123.125 19.774 124.434 20.3672 125.316 21.4407V20.0282L127.764 20ZM125.288 25.2542C125.288 23.4463 123.978 22.0056 122.185 22.0056C120.392 22.0056 119.168 23.4463 119.168 25.2542C119.168 27.0621 120.421 28.4746 122.214 28.4746C124.007 28.4746 125.288 27.0621 125.288 25.2542Z" fill="#002172"></path>
  <path fill-rule="evenodd" clip-rule="evenodd" d="M136.359 30.7345C139.262 30.7345 141.454 28.4746 141.454 25.2542C141.454 22.0339 139.262 19.8023 136.359 19.8305C134.993 19.8023 133.684 20.3955 132.802 21.4689V15.2825H130.354V30.5367H132.802V29.096C133.655 30.1412 134.965 30.7627 136.359 30.7345ZM135.904 22.0339C137.697 22.0339 138.949 23.4746 138.949 25.2542C138.949 27.0621 137.725 28.5028 135.932 28.5028C134.139 28.5028 132.83 27.0621 132.83 25.2542C132.83 23.4463 134.111 22.0339 135.904 22.0339Z" fill="#002172"></path>
  <path fill-rule="evenodd" clip-rule="evenodd" d="M142.45 17.6836H142.82V17.0339H142.991C143.19 17.0339 143.275 17.1186 143.304 17.2881C143.332 17.4859 143.361 17.6271 143.418 17.6836H143.816C143.788 17.6271 143.759 17.5424 143.702 17.2881C143.645 17.0622 143.56 16.9492 143.418 16.8927V16.8644C143.588 16.8079 143.731 16.6667 143.731 16.4972C143.731 16.3559 143.674 16.2147 143.588 16.1582C143.475 16.1017 143.332 16.0452 143.048 16.0452C142.792 16.0452 142.592 16.0734 142.45 16.1017V17.6836ZM143.019 16.7797H142.848V16.3277C142.877 16.2994 142.962 16.2994 143.048 16.2994C143.275 16.2994 143.389 16.4124 143.389 16.5537C143.389 16.7232 143.218 16.7797 143.019 16.7797Z" fill="#002172"></path>
  <path fill-rule="evenodd" clip-rule="evenodd" d="M143.076 18.4463C143.987 18.4463 144.698 17.7401 144.698 16.8362C144.698 15.9605 143.987 15.2542 143.076 15.2542C142.165 15.2542 141.454 15.9605 141.454 16.8362C141.454 17.7401 142.165 18.4463 143.076 18.4463ZM143.076 18.1073C142.365 18.1073 141.852 17.5424 141.852 16.8362C141.852 16.1582 142.393 15.565 143.076 15.565C143.759 15.565 144.272 16.1299 144.272 16.8362C144.272 17.5424 143.759 18.1073 143.076 18.1073Z" fill="#002172"></path>
</svg>
